# xmcd CD database file generated by OrangeCD 6.4
#
# Track frame offsets:
#	150
#	15986
#	33235
#	49401
#	64968
#	81746
#	100532
#	117770
#	136317
#	149451
#	166198
#	180982
#
# Disc length: 2630 seconds
#
# Revision: 1
# Processed by: cddbd v1.5.2PL0 Copyright (c) Steve Scherf et al.
# Submitted via: OrangeCD 6.4
#
DISCID=9b0a440c
DTITLE=Ronnie Dunn - Ronnie Dunn
DYEAR=2011
DGENRE=Country
TTITLE0=Singer In A Cowboy Band
TTITLE1=I Don't Dance
TTITLE2=Your Kind Of Love
TTITLE3=How Far To Waco
TTITLE4=Once
TTITLE5=Cost Of Livin'
TTITLE6=Bleed Red
TTITLE7=Last Love I'm Tryin'
TTITLE8=Let The Cowboy Rock
TTITLE9=I Can't Help Myself
TTITLE10=I Just Get Lonely
TTITLE11=Love Owes Me One
EXTD=
EXTT0=
EXTT1=
EXTT2=
EXTT3=
EXTT4=
EXTT5=
EXTT6=
EXTT7=
EXTT8=
EXTT9=
EXTT10=
EXTT11=
PLAYORDER=
